<?xml version="1.0" encoding="UTF-8"?><svg id="Layer_1" xmlns="http://www.w3.org/2000/svg" viewBox="0 0 773.1 771.05"><defs><style>.cls-1{stroke-width:0px;}</style></defs><path class="cls-1" d="m278.16,233.2c-.93,10.75-5.67,20.82-13.36,28.38-14.38,14.1-36.16,17.44-54.09,8.28-22.37-11.28-31.37-38.56-20.09-60.93,2.23-4.43,5.18-8.47,8.72-11.95,14.32-14.17,36.14-17.52,54.05-8.28,16.53,8.42,26.32,26.01,24.78,44.49Zm493.11,392.04l-13.85,34.15c-5.13,12.66-19.51,18.81-32.21,13.78l-6.18-2.45c-9.42-3.73-20.24-1.34-27.03,6.18-2.18,2.41-4.43,4.76-6.74,7.04-1.27,1.25-2.55,2.48-3.85,3.69-7.65,7.11-9.96,18.29-5.8,27.88l2.1,4.84c5.5,12.69-.4,27.43-13.14,32.81l-34.62,14.63c-12.57,5.31-27.08-.5-32.5-13.03l-2.34-5.4c-4.16-9.62-13.9-15.5-24.37-14.93-4.85.26-9.71.32-14.57.17-10.47-.31-20.06,5.79-24,15.5l-2.2,5.43c-5.13,12.65-19.5,18.8-32.2,13.78l-34.88-13.8c-12.85-5.08-19.09-19.66-13.9-32.47l1.95-4.82c3.98-9.82,1.23-21.01-6.68-28.06-1.79-1.59-3.54-3.23-5.26-4.9-1.66-1.61-3.29-3.26-4.89-4.93-7.19-7.56-18.24-10-27.85-5.94l-5.96,2.52c-12.58,5.31-27.08-.51-32.5-13.04l-14.61-33.79c-5.48-12.68.42-27.4,13.15-32.78l5.34-2.26c9.67-4.09,15.59-13.84,15.04-24.32-.25-4.6-.3-9.22-.17-13.82.3-10.5-5.85-20.11-15.62-23.98l-5.43-2.15c-12.84-5.09-19.07-19.66-13.89-32.46l13.81-34.1c5.13-12.66,19.52-18.82,32.22-13.78l5.97,2.37c9.56,3.79,20.53,1.36,27.45-6.27,2.16-2.38,4.38-4.7,6.67-6.96,1.19-1.17,2.39-2.32,3.61-3.46,7.72-7.2,10.12-18.44,5.92-28.12l-2.07-4.77c-5.5-12.68.4-27.41,13.13-32.8l34.6-14.64c12.58-5.32,27.09.49,32.51,13.02l2.35,5.44c4.16,9.61,13.88,15.49,24.34,14.94,4.86-.26,9.74-.32,14.61-.18,10.45.3,20.02-5.8,23.96-15.49l2.24-5.51c5.14-12.65,19.52-18.79,32.21-13.76l34.92,13.85c12.84,5.09,19.07,19.67,13.88,32.47l-1.99,4.89c-3.97,9.78-1.23,20.91,6.65,27.94,3.54,3.15,6.94,6.45,10.21,9.88,7.18,7.55,18.23,9.97,27.83,5.92l5.93-2.5c12.57-5.31,27.07.5,32.5,13.01l14.66,33.79c5.5,12.68-.39,27.4-13.11,32.8l-5.39,2.28c-9.66,4.09-15.58,13.84-15.03,24.32.24,4.6.3,9.21.18,13.82-.28,10.49,5.88,20.09,15.64,23.95l5.37,2.12c12.85,5.08,19.09,19.67,13.9,32.47Zm-133.28-140.66c-43.05-41.46-111.3-41.09-153.9.83-42.19,41.63-42.64,109.58-1.01,151.77.6.61,1.21,1.21,1.83,1.81,10.32,9.97,22.5,17.81,35.84,23.07,40.63,16.11,86.93,6.73,118.08-23.92,42.18-41.61,42.64-109.53,1.03-151.7-.61-.62-1.24-1.24-1.87-1.85h0Zm-244.46-90.81l-25.34,21.1c-12.44,10.36-30.9,8.79-41.4-3.53l-.76-.89c-7.9-9.26-20.68-12.75-32.17-8.73-3.75,1.31-7.54,2.5-11.36,3.57-11.85,3.31-20.4,13.64-21.46,25.9l-.03.36c-1.41,16.23-15.69,28.27-31.93,26.9l-33.25-2.79c-16.29-1.37-28.38-15.7-26.98-31.99l.02-.18c1.06-12.3-5.64-23.96-16.8-29.24-3.56-1.68-7.06-3.48-10.5-5.38-10.63-5.89-23.8-4.61-33.15,3.16l-1.03.85c-12.45,10.35-30.9,8.76-41.4-3.56l-21.26-24.95c-10.68-12.53-9.07-31.37,3.59-41.9l.08-.07c9.53-7.93,13.08-20.96,8.93-32.64-1.24-3.48-2.37-7-3.39-10.54-3.38-11.77-13.69-20.22-25.89-21.26l-.98-.08c-16.28-1.39-28.35-15.72-26.95-32l2.78-32.17c1.4-16.24,15.69-28.29,31.94-26.92l1.16.1c12.17,1.03,23.73-5.54,29.06-16.53,1.63-3.37,3.36-6.68,5.2-9.94,6.08-10.8,4.79-24.25-3.26-33.68h0c-10.68-12.54-9.07-31.37,3.58-41.91l25.33-21.11c12.44-10.36,30.9-8.79,41.41,3.52l.79.92c7.91,9.26,20.69,12.75,32.18,8.73,3.75-1.31,7.54-2.51,11.37-3.58,11.84-3.32,20.37-13.65,21.43-25.9l.03-.38c1.4-16.25,15.7-28.29,31.95-26.92l33.27,2.82c16.29,1.38,28.37,15.73,26.96,32.02v.14c-1.08,12.28,5.58,23.95,16.71,29.23,1.8.85,3.58,1.73,5.34,2.64,1.75.9,3.48,1.82,5.2,2.77,10.65,5.89,23.83,4.62,33.18-3.18l.98-.82c12.44-10.37,30.91-8.79,41.42,3.53l21.27,24.94c10.69,12.53,9.08,31.38-3.58,41.91l-.09.08c-9.53,7.93-13.08,20.96-8.93,32.64,1.24,3.48,2.37,7,3.39,10.55,3.39,11.77,13.71,20.22,25.92,21.24l.89.07c16.3,1.37,28.39,15.71,26.98,32.01l-2.78,32.19c-1.4,16.25-15.7,28.29-31.95,26.91l-1.08-.09c-12.18-1.03-23.76,5.54-29.08,16.54-1.63,3.36-3.36,6.67-5.19,9.92-6.09,10.81-4.8,24.26,3.25,33.7h0c10.68,12.53,9.07,31.37-3.58,41.9Zm-46.19-154.78c3.86-46.2-20.62-90.14-61.93-111.18-44.83-22.9-99.29-14.56-135.21,20.71-44.67,44.02-45.2,115.91-1.18,160.59,8.66,8.78,18.68,16.1,29.69,21.66,44.82,22.9,99.27,14.57,135.19-20.68,19.27-18.95,31.13-44.16,33.44-71.08Zm230.41,282.66c-16.26-6.43-34.79-2.67-47.26,9.59-4.16,4.12-7.44,9.04-9.66,14.46-8.84,22.1,1.91,47.17,24.01,56.01.12.05.25.1.37.15,16.24,6.46,34.75,2.72,47.2-9.54,4.16-4.12,7.44-9.04,9.66-14.46,6.54-16.24,2.58-34.82-10.01-46.99-4.12-3.98-8.99-7.11-14.31-9.22Z"/></svg>